# xmcd CD database file
#
# Track frame offsets:
#	150
#	40667
#	70952
#	116777
#	168080
#	189541
#	211683
#	237729
#	266958
#
# Disc length: 4102 seconds
#
# Revision: 0
# Processed by: cddbd v1.5.1PL0 Copyright (c) Steve Scherf et al.
# Submitted via: CDex 1.51
#
DISCID=82100409
DTITLE=Genesis - BIG JIM MUST BE MAD! 1978(Live at Palais des Sports,Dijon,France 03rd June 1978) -Disc 2-
DYEAR=1978
DGENRE=Progressive Rock
TTITLE0=Squonk
TTITLE1=Say It's Alright Joe
TTITLE2=The Lady Lies
TTITLE3=The Cinema Show
TTITLE4=Afterglow
TTITLE5=Follow You, Follow Me
TTITLE6=Dance On A Volcano/Drum Duet
TTITLE7=Los Ends
TTITLE8=I Know What I Like
EXTD=YEAR: 1978
EXTT0=
EXTT1=
EXTT2=
EXTT3=
EXTT4=
EXTT5=
EXTT6=
EXTT7=
EXTT8=
PLAYORDER=
